<svg width="32" height="32" viewBox="0 0 32 32" fill="none" xmlns="http://www.w3.org/2000/svg">
<path d="M23.2354 25.8478C22.9927 25.7474 22.7721 25.6001 22.5863 25.4145L16.0001 18.8283L9.41398 25.4145C9.22816 25.6001 9.00759 25.7474 8.76487 25.8478C8.52214 25.9482 8.26202 25.9998 7.99934 25.9997C7.73667 25.9996 7.47659 25.9477 7.23396 25.8471C6.99132 25.7465 6.77088 25.5991 6.58523 25.4132C6.39957 25.2274 6.25233 25.0068 6.15192 24.7641C6.05151 24.5214 5.99988 24.2613 6 23.9986C6.00012 23.7359 6.05197 23.4758 6.1526 23.2332C6.25322 22.9906 6.40066 22.7701 6.58648 22.5845L13.1715 15.9995L6.58648 9.41448C6.21136 9.03937 6.00062 8.5306 6.00062 8.00011C6.00062 7.46961 6.21136 6.96085 6.58648 6.58573C6.96159 6.21062 7.47036 5.99988 8.00085 5.99988C8.53134 5.99988 9.04011 6.21062 9.41523 6.58573L16.0001 13.1706L22.585 6.58573C22.9601 6.21062 23.4689 5.99988 23.9994 5.99988C24.5299 5.99988 25.0387 6.21062 25.4138 6.58573C25.7889 6.96085 25.9996 7.46961 25.9996 8.00011C25.9996 8.5306 25.7889 9.03937 25.4138 9.41448L18.8288 15.9995L25.4138 22.5845C25.5996 22.7701 25.747 22.9906 25.8476 23.2332C25.9483 23.4758 26.0001 23.7359 26.0002 23.9986C26.0004 24.2613 25.9487 24.5214 25.8483 24.7641C25.7479 25.0068 25.6007 25.2274 25.415 25.4132C25.2294 25.5991 25.0089 25.7465 24.7663 25.8471C24.5237 25.9477 24.2636 25.9996 24.0009 25.9997C23.7382 25.9998 23.4781 25.9482 23.2354 25.8478Z" fill="#FF0000"/>
</svg>
