<svg width="32" height="32" viewBox="0 0 32 32" fill="none" xmlns="http://www.w3.org/2000/svg">
<path d="M25.9996 4C25.6781 4.00023 25.3615 4.07795 25.0764 4.22656C24.7914 4.37518 24.5463 4.59032 24.3621 4.85375L11.7284 22.9L7.4146 18.5863C7.03949 18.2111 6.53072 18.0004 6.00023 18.0004C5.46973 18.0004 4.96097 18.2111 4.58585 18.5863C4.21074 18.9614 4 19.4701 4 20.0006C4 20.5311 4.21074 21.0399 4.58585 21.415L10.5859 27.415C10.7911 27.6202 11.0386 27.7782 11.311 27.8782C11.5835 27.9781 11.8745 28.0176 12.1637 27.9938C12.453 27.97 12.7336 27.8836 12.9861 27.7404C13.2386 27.5973 13.4569 27.401 13.6259 27.165L27.6371 7.14625C27.8467 6.8466 27.9701 6.49523 27.9939 6.13034C28.0177 5.76545 27.9411 5.40101 27.7723 5.07665C27.6034 4.75229 27.3489 4.48041 27.0364 4.29059C26.7239 4.10077 26.3653 4.00026 25.9996 4Z" fill="#0A2233"/>
</svg>
